<svg width="20" height="20" viewBox="0 0 20 20" fill="none" xmlns="http://www.w3.org/2000/svg">
<path d="M14.0803 19.5515C13.3463 19.5461 12.6154 19.4539 11.903 19.277C9.44268 18.6834 6.90918 17.1776 4.77032 15.0368C2.63146 12.8961 1.12374 10.3621 0.530136 7.90415C-0.0949102 5.31856 0.350881 3.1065 1.78398 1.6734L2.19317 1.26421C2.56443 0.893697 3.06751 0.685608 3.59202 0.685608C4.11653 0.685608 4.61961 0.893697 4.99086 1.26421L7.3423 3.61517C7.71304 3.9863 7.92129 4.48943 7.92129 5.01402C7.92129 5.5386 7.71304 6.04173 7.3423 6.41286L5.9533 7.80139C6.61918 8.96983 7.52484 10.1392 8.59521 11.2096C9.66557 12.2799 10.8359 13.1861 12.0039 13.8519L13.3924 12.463C13.5761 12.2792 13.7941 12.1335 14.0342 12.034C14.2742 11.9346 14.5314 11.8834 14.7912 11.8834C15.051 11.8834 15.3083 11.9346 15.5483 12.034C15.7883 12.1335 16.0064 12.2792 16.1901 12.463L18.541 14.8139C18.9119 15.1849 19.1202 15.688 19.1202 16.2125C19.1202 16.7371 18.9119 17.2402 18.541 17.6111L18.1314 18.0203C17.1211 19.0325 15.7227 19.5515 14.0803 19.5515ZM3.59202 2.09244C3.5171 2.09207 3.44285 2.10665 3.37364 2.13534C3.30442 2.16402 3.24163 2.20623 3.18893 2.2595L2.77927 2.66869C1.70609 3.74187 1.39262 5.48421 1.8966 7.57192C2.43015 9.78351 3.80365 12.0815 5.76373 14.0411C7.7238 16.0007 10.0213 17.3728 12.2333 17.9082C14.3215 18.4122 16.0629 18.0987 17.1361 17.0255L17.5453 16.6163C17.6522 16.5093 17.7123 16.3643 17.7123 16.213C17.7123 16.0617 17.6522 15.9167 17.5453 15.8097L15.1948 13.4587C15.0878 13.3518 14.9427 13.2917 14.7915 13.2917C14.6402 13.2917 14.4951 13.3518 14.3881 13.4587L12.628 15.2189C12.5224 15.3246 12.3859 15.3939 12.2382 15.4168C12.0906 15.4398 11.9395 15.4152 11.8068 15.3465C10.3638 14.6004 8.90914 13.5141 7.59992 12.2049C6.2907 10.8956 5.20672 9.4419 4.45873 7.99894C4.39004 7.86628 4.36534 7.71521 4.3882 7.56758C4.41106 7.41995 4.4803 7.28342 4.5859 7.17775L6.34654 5.41758C6.45345 5.31058 6.51351 5.16551 6.51351 5.01425C6.51351 4.86299 6.45345 4.71793 6.34654 4.61093L3.99558 2.2595C3.94272 2.20633 3.87982 2.16418 3.81055 2.1355C3.74127 2.10683 3.66699 2.09219 3.59202 2.09244Z" fill="white"/>
<path d="M14.8322 11.0894C14.6455 11.0894 14.4665 11.0153 14.3345 10.8833C14.2025 10.7513 14.1283 10.5722 14.1283 10.3856C14.127 9.15073 13.6358 7.96686 12.7627 7.09366C11.8896 6.22046 10.7058 5.72923 9.47097 5.72774C9.28429 5.72774 9.10526 5.65358 8.97325 5.52158C8.84125 5.38957 8.76709 5.21054 8.76709 5.02386C8.76709 4.83718 8.84125 4.65814 8.97325 4.52614C9.10526 4.39414 9.28429 4.31998 9.47097 4.31998C12.8153 4.31998 15.5361 7.04165 15.5361 10.3856C15.5361 10.5722 15.4619 10.7513 15.3299 10.8833C15.1979 11.0153 15.0189 11.0894 14.8322 11.0894Z" fill="white"/>
<path d="M17.8073 11.0894C17.6206 11.0894 17.4416 11.0153 17.3095 10.8833C17.1775 10.7513 17.1034 10.5722 17.1034 10.3856C17.1034 6.17682 13.6778 2.75267 9.47097 2.75267C9.28429 2.75267 9.10526 2.67851 8.97325 2.54651C8.84125 2.41451 8.76709 2.23547 8.76709 2.04879C8.76709 1.86211 8.84125 1.68308 8.97325 1.55107C9.10526 1.41907 9.28429 1.34491 9.47097 1.34491C14.4559 1.34491 18.5111 5.40067 18.5111 10.3856C18.5111 10.5722 18.437 10.7513 18.305 10.8833C18.173 11.0153 17.9939 11.0894 17.8073 11.0894Z" fill="white"/>
</svg>
