<svg width="22" height="21" viewBox="0 0 22 21" fill="none" xmlns="http://www.w3.org/2000/svg">
<path d="M10.8898 0.0838665C4.57037 -0.00861299 -0.499192 5.64927 0.566213 12.1236C1.28863 16.5172 4.89841 19.975 9.30775 20.5702C12.2808 20.9716 15.0603 20.1137 17.1644 18.425L16.0918 17.0843C14.3364 18.4931 12.0271 19.2191 9.52226 18.8808C5.87094 18.388 2.87963 15.4881 2.28234 11.8554C1.38278 6.38893 5.5728 1.72258 10.863 1.8C15.3719 1.86612 19.1727 5.60553 19.3096 10.1125C19.3126 10.2091 19.3096 10.303 19.3096 10.4075C19.3027 12.2977 17.772 13.8136 15.8773 13.8129C14.9189 13.8123 14.1612 13.0541 14.1612 12.0968V11.6677V9.09354V5.23225H12.445V5.90262C11.8285 5.48502 11.0958 5.23225 10.2999 5.23225C8.17751 5.23225 6.43859 6.97117 6.43859 9.09354V11.6677C6.43859 13.7901 8.17751 15.529 10.2999 15.529C11.4565 15.529 12.4864 15.0018 13.1959 14.1883C13.8261 14.9898 14.7865 15.5284 15.8773 15.529C18.6951 15.5301 21.0154 13.2297 21.0257 10.4075C21.0257 10.294 21.0296 10.1819 21.0257 10.0589C20.8606 4.62258 16.3275 0.163612 10.8898 0.0838665ZM10.2999 6.94838C11.4948 6.94838 12.445 7.89864 12.445 9.09354V11.6677C12.445 12.8626 11.4948 13.8129 10.2999 13.8129C9.10497 13.8129 8.15472 12.8626 8.15472 11.6677V9.09354C8.15472 7.89864 9.10497 6.94838 10.2999 6.94838Z" fill="white"/>
</svg>
